<svg version="1.1" id="Layer_1" xmlns="http://www.w3.org/2000/svg" xmlns:xlink="http://www.w3.org/1999/xlink" x="0px" y="0px"
	 width="100%" viewBox="0 0 600 200" enable-background="new 0 0 600 200" xml:space="preserve">
<path fill="#000000" opacity="1.000000" stroke="none" 
	d="
M416.000000,201.000000 
	C277.376495,201.000000 139.253006,201.000000 1.064755,201.000000 
	C1.064755,134.397385 1.064755,67.794693 1.064755,1.095999 
	C201.000000,1.095999 401.000000,1.095999 600.971069,1.095999 
	C600.971069,67.746925 600.971069,134.373474 600.971069,201.000000 
	C539.461426,201.000000 477.980713,201.000000 416.000000,201.000000 
M269.520203,150.000000 
	C282.178589,150.000000 294.836975,149.981476 307.495300,150.008255 
	C313.315887,150.020569 321.063812,145.793945 321.937866,138.114853 
	C322.585754,132.422165 323.245392,126.624855 322.853729,120.946304 
	C322.349884,113.641411 320.097137,106.938721 312.575928,105.941643 
	C313.416931,102.246605 314.429047,98.800194 314.927246,95.281029 
	C315.297089,92.668472 314.696014,89.919563 315.056732,87.304405 
	C316.160248,79.304688 308.720428,73.331528 301.765137,73.133545 
	C286.643982,72.703110 271.502075,73.000717 256.382568,73.000717 
	C255.867569,74.821693 255.063217,76.350952 255.057632,77.883141 
	C254.976074,100.201508 254.952332,122.520493 255.055054,144.838684 
	C255.070114,148.106674 256.563171,150.416519 260.540680,150.046585 
	C263.182739,149.800842 265.866180,150.000000 269.520203,150.000000 
M243.000000,133.177399 
	C243.000000,119.362572 242.674713,105.537628 243.103989,91.736153 
	C243.441101,80.897644 236.014008,75.236084 228.016006,73.017067 
	C216.572617,69.842140 204.953613,70.446281 193.405029,72.074944 
	C181.771332,73.715622 175.018234,81.904022 175.003357,93.647461 
	C174.988190,105.631355 174.607498,117.631828 175.111923,129.594482 
	C175.602692,141.233383 178.821045,146.607712 189.530884,149.679169 
	C201.783264,153.192993 214.272964,152.920181 226.804138,150.131317 
	C235.821548,148.124451 241.665787,143.548752 243.000000,133.177399 
M429.378906,150.000000 
	C436.998413,149.999512 436.998810,149.999512 436.999847,142.466904 
	C437.000580,137.041992 437.000000,131.617081 437.000000,126.000130 
	C441.728027,126.000130 445.876343,126.135567 450.010925,125.955528 
	C453.092651,125.821320 454.138733,127.057938 454.044678,130.058441 
	C453.883026,135.214310 453.999176,140.378937 454.001343,145.539886 
	C454.002686,148.673157 455.211639,150.225052 458.703796,150.068222 
	C464.352814,149.814560 470.026123,149.863037 475.680145,150.052948 
	C478.900635,150.161133 480.145660,149.090408 480.056793,145.772873 
	C479.869659,138.785645 479.742737,131.777985 480.066101,124.800728 
	C480.457397,116.357536 477.360962,110.414261 469.318207,107.713394 
	C474.488739,100.011681 473.901459,91.760544 471.914124,83.590500 
	C470.096497,76.117935 463.693573,73.198288 458.042786,73.090591 
	C443.730560,72.817818 429.409241,73.054390 415.092468,72.955482 
	C412.137207,72.935066 410.939056,73.841362 410.951294,76.952293 
	C411.041534,99.926476 411.053802,122.901428 410.941803,145.875412 
	C410.925140,149.297485 412.305450,150.181091 415.421417,150.046738 
	C419.741913,149.860458 424.076477,149.999985 429.378906,150.000000 
M158.554672,84.958878 
	C159.893097,81.173668 161.231522,77.388466 162.783142,73.000305 
	C154.535568,73.000305 147.549164,72.790932 140.593292,73.158943 
	C139.008087,73.242813 136.864273,74.999237 136.114090,76.539413 
	C132.680786,83.588226 129.729691,90.870338 126.409920,97.977356 
	C125.761642,99.365219 124.245819,100.347832 123.130135,101.517365 
	C121.999916,92.862862 121.879189,85.047684 122.057030,77.239304 
	C122.132248,73.936699 120.926834,72.833221 117.692978,72.946991 
	C112.206245,73.140030 106.705513,73.094551 101.215233,72.961067 
	C98.380852,72.892159 96.938721,73.603752 96.951431,76.829651 
	C97.042564,99.968666 97.028465,123.108292 96.963509,146.247482 
	C96.955627,149.056549 98.012566,150.100830 100.792786,150.037018 
	C106.283417,149.911011 111.789032,149.797501 117.269043,150.069641 
	C121.057953,150.257812 122.183548,148.860001 122.070457,145.183350 
	C121.836632,137.580887 121.999992,129.966232 121.999992,122.000092 
	C126.206055,122.000092 130.004883,122.163696 133.782516,121.951012 
	C137.115662,121.763359 138.159653,123.120995 138.052689,126.329971 
	C137.864197,131.983673 137.965851,137.648468 138.009598,143.308121 
	C138.053635,149.006775 139.033310,149.987701 144.497971,149.997925 
	C149.658539,150.007599 154.823090,149.878082 159.978195,150.046021 
	C163.020630,150.145157 164.083542,149.010239 164.048141,145.975983 
	C163.923843,135.323334 164.084030,124.667427 163.968384,114.014587 
	C163.899124,107.634995 161.180206,104.292732 154.813705,101.946396 
	C153.800110,101.572838 152.900620,100.889595 151.738983,100.230766 
	C153.877777,95.253258 155.959045,90.409653 158.554672,84.958878 
M374.029480,148.062469 
	C375.388611,148.708282 376.727966,149.857056 378.110321,149.911346 
	C383.593689,150.126724 389.099060,149.813507 394.579285,150.065628 
	C398.217651,150.233032 399.112946,148.743652 399.059509,145.376617 
	C398.895844,135.061234 399.026520,124.741440 398.965637,114.423813 
	C398.958191,113.167694 398.617615,111.866554 398.199463,110.667160 
	C394.149414,99.049675 390.175812,87.401505 385.801178,75.906395 
	C385.267151,74.503098 382.542236,73.224518 380.766876,73.130447 
	C374.460663,72.796303 368.125916,73.000000 361.802002,73.000000 
	C346.066345,72.999992 346.555389,73.222603 340.180817,87.227707 
	C331.676544,105.911766 329.802429,125.397491 330.974121,145.494965 
	C331.154907,148.595642 332.121185,150.257828 335.654755,150.065338 
	C340.466614,149.803223 345.324890,149.717880 350.123413,150.081909 
	C354.631042,150.423859 356.576965,149.158798 356.084412,144.325455 
	C355.672943,140.288010 356.000000,136.175293 356.000000,132.335556 
	C362.423889,132.335556 368.162109,132.335556 374.001984,132.335556 
	C374.001984,137.488342 374.001984,142.306061 374.029480,148.062469 
M495.559570,88.061172 
	C495.565125,88.994781 495.718109,89.955276 495.553558,90.857880 
	C493.771912,100.631348 491.940369,110.395729 490.031708,120.650070 
	C498.110413,122.269341 505.178345,123.319313 512.018982,125.197220 
	C516.003052,126.290955 516.772339,124.470787 517.432800,121.509064 
	C518.453369,116.932274 519.504395,112.361420 520.615173,107.805740 
	C522.715332,99.192062 524.864868,90.590408 526.998718,81.984932 
	C527.686890,79.209351 527.914612,77.368523 523.872986,76.760620 
	C516.838928,75.702644 509.971222,73.579430 502.988098,72.121468 
	C500.432892,71.587982 498.223541,71.749321 497.849548,75.559456 
	C497.458252,79.546326 496.069183,83.435265 495.559570,88.061172 
M486.057220,129.923218 
	C485.365082,134.102692 485.194305,138.460709 483.840637,142.413651 
	C482.354645,146.752930 484.599640,148.093704 487.786102,148.845230 
	C494.274292,150.375427 500.820679,151.670151 507.367828,152.933960 
	C510.538788,153.546051 512.710754,152.748718 513.075684,148.871796 
	C513.455994,144.831360 513.971985,140.704468 515.212646,136.868942 
	C516.821350,131.895477 513.986267,130.794281 510.317413,130.006851 
	C504.437286,128.744797 498.521423,127.639694 492.667908,126.266907 
	C489.665070,125.562668 487.475220,125.999512 486.057220,129.923218 
z"/>
<path fill="#FFFFFF" opacity="1.000000" stroke="none" 
	d="
M269.025635,150.000000 
	C265.866180,150.000000 263.182739,149.800842 260.540680,150.046585 
	C256.563171,150.416519 255.070114,148.106674 255.055054,144.838684 
	C254.952332,122.520493 254.976074,100.201508 255.057632,77.883141 
	C255.063217,76.350952 255.867569,74.821693 256.382568,73.000717 
	C271.502075,73.000717 286.643982,72.703110 301.765137,73.133545 
	C308.720428,73.331528 316.160248,79.304688 315.056732,87.304405 
	C314.696014,89.919563 315.297089,92.668472 314.927246,95.281029 
	C314.429047,98.800194 313.416931,102.246605 312.575928,105.941643 
	C320.097137,106.938721 322.349884,113.641411 322.853729,120.946304 
	C323.245392,126.624855 322.585754,132.422165 321.937866,138.114853 
	C321.063812,145.793945 313.315887,150.020569 307.495300,150.008255 
	C294.836975,149.981476 282.178589,150.000000 269.025635,150.000000 
M282.709320,120.003853 
	C281.896271,123.458527 281.083221,126.913200 280.121399,130.999969 
	C285.114685,130.999969 288.890350,130.793930 292.633301,131.055725 
	C296.683807,131.339020 297.846436,128.908493 297.932556,125.729393 
	C298.024811,122.324509 296.918732,119.661842 292.600372,119.960732 
	C289.636139,120.165901 286.646210,120.000191 282.709320,120.003853 
M292.999878,97.349411 
	C292.397888,91.463570 291.832855,91.222740 281.190948,92.419319 
	C281.190948,95.465775 281.190948,98.533928 281.190948,102.160439 
	C285.324188,100.729752 290.796936,105.090195 292.999878,97.349411 
z"/>
<path fill="#FFFFFF" opacity="1.000000" stroke="none" 
	d="
M242.999969,133.635269 
	C241.665787,143.548752 235.821548,148.124451 226.804138,150.131317 
	C214.272964,152.920181 201.783264,153.192993 189.530884,149.679169 
	C178.821045,146.607712 175.602692,141.233383 175.111923,129.594482 
	C174.607498,117.631828 174.988190,105.631355 175.003357,93.647461 
	C175.018234,81.904022 181.771332,73.715622 193.405029,72.074944 
	C204.953613,70.446281 216.572617,69.842140 228.016006,73.017067 
	C236.014008,75.236084 243.441101,80.897644 243.103989,91.736153 
	C242.674713,105.537628 243.000000,119.362572 242.999969,133.635269 
M218.000000,104.618370 
	C217.999985,93.474472 217.433228,93.082321 206.909927,92.906616 
	C202.438141,92.831940 201.069855,95.019539 201.026093,98.764267 
	C200.938751,106.238823 201.000015,113.715126 201.000000,121.190704 
	C200.999985,128.869812 201.000046,128.869812 208.098862,130.552078 
	C213.692215,131.877563 217.859085,128.784332 217.974304,123.031792 
	C218.090714,117.219780 217.999969,111.403618 218.000000,104.618370 
z"/>
<path fill="#FFFFFF" opacity="1.000000" stroke="none" 
	d="
M428.891968,150.000000 
	C424.076477,149.999985 419.741913,149.860458 415.421417,150.046738 
	C412.305450,150.181091 410.925140,149.297485 410.941803,145.875412 
	C411.053802,122.901428 411.041534,99.926476 410.951294,76.952293 
	C410.939056,73.841362 412.137207,72.935066 415.092468,72.955482 
	C429.409241,73.054390 443.730560,72.817818 458.042786,73.090591 
	C463.693573,73.198288 470.096497,76.117935 471.914124,83.590500 
	C473.901459,91.760544 474.488739,100.011681 469.318207,107.713394 
	C477.360962,110.414261 480.457397,116.357536 480.066101,124.800728 
	C479.742737,131.777985 479.869659,138.785645 480.056793,145.772873 
	C480.145660,149.090408 478.900635,150.161133 475.680145,150.052948 
	C470.026123,149.863037 464.352814,149.814560 458.703796,150.068222 
	C455.211639,150.225052 454.002686,148.673157 454.001343,145.539886 
	C453.999176,140.378937 453.883026,135.214310 454.044678,130.058441 
	C454.138733,127.057938 453.092651,125.821320 450.010925,125.955528 
	C445.876343,126.135567 441.728027,126.000130 437.000000,126.000130 
	C437.000000,131.617081 437.000580,137.041992 436.999847,142.466904 
	C436.998810,149.999512 436.998413,149.999512 428.891968,150.000000 
M448.000000,99.455566 
	C449.010101,93.487778 445.516815,91.817223 437.247467,93.581551 
	C437.247467,97.662148 437.247467,101.729858 437.247467,105.773361 
	C445.933228,106.304276 446.893005,105.805496 448.000000,99.455566 
z"/>
<path fill="#FFFFFF" opacity="1.000000" stroke="none" 
	d="
M158.297485,85.262466 
	C155.959045,90.409653 153.877777,95.253258 151.738983,100.230766 
	C152.900620,100.889595 153.800110,101.572838 154.813705,101.946396 
	C161.180206,104.292732 163.899124,107.634995 163.968384,114.014587 
	C164.084030,124.667427 163.923843,135.323334 164.048141,145.975983 
	C164.083542,149.010239 163.020630,150.145157 159.978195,150.046021 
	C154.823090,149.878082 149.658539,150.007599 144.497971,149.997925 
	C139.033310,149.987701 138.053635,149.006775 138.009598,143.308121 
	C137.965851,137.648468 137.864197,131.983673 138.052689,126.329971 
	C138.159653,123.120995 137.115662,121.763359 133.782516,121.951012 
	C130.004883,122.163696 126.206055,122.000092 121.999992,122.000092 
	C121.999992,129.966232 121.836632,137.580887 122.070457,145.183350 
	C122.183548,148.860001 121.057953,150.257812 117.269043,150.069641 
	C111.789032,149.797501 106.283417,149.911011 100.792786,150.037018 
	C98.012566,150.100830 96.955627,149.056549 96.963509,146.247482 
	C97.028465,123.108292 97.042564,99.968666 96.951431,76.829651 
	C96.938721,73.603752 98.380852,72.892159 101.215233,72.961067 
	C106.705513,73.094551 112.206245,73.140030 117.692978,72.946991 
	C120.926834,72.833221 122.132248,73.936699 122.057030,77.239304 
	C121.879189,85.047684 121.999916,92.862862 123.130135,101.517365 
	C124.245819,100.347832 125.761642,99.365219 126.409920,97.977356 
	C129.729691,90.870338 132.680786,83.588226 136.114090,76.539413 
	C136.864273,74.999237 139.008087,73.242813 140.593292,73.158943 
	C147.549164,72.790932 154.535568,73.000305 162.783142,73.000305 
	C161.231522,77.388466 159.893097,81.173668 158.297485,85.262466 
z"/>
<path fill="#FFFFFF" opacity="1.000000" stroke="none" 
	d="
M374.015747,147.593124 
	C374.001984,142.306061 374.001984,137.488342 374.001984,132.335556 
	C368.162109,132.335556 362.423889,132.335556 356.000000,132.335556 
	C356.000000,136.175293 355.672943,140.288010 356.084412,144.325455 
	C356.576965,149.158798 354.631042,150.423859 350.123413,150.081909 
	C345.324890,149.717880 340.466614,149.803223 335.654755,150.065338 
	C332.121185,150.257828 331.154907,148.595642 330.974121,145.494965 
	C329.802429,125.397491 331.676544,105.911766 340.180817,87.227707 
	C346.555389,73.222603 346.066345,72.999992 361.802002,73.000000 
	C368.125916,73.000000 374.460663,72.796303 380.766876,73.130447 
	C382.542236,73.224518 385.267151,74.503098 385.801178,75.906395 
	C390.175812,87.401505 394.149414,99.049675 398.199463,110.667160 
	C398.617615,111.866554 398.958191,113.167694 398.965637,114.423813 
	C399.026520,124.741440 398.895844,135.061234 399.059509,145.376617 
	C399.112946,148.743652 398.217651,150.233032 394.579285,150.065628 
	C389.099060,149.813507 383.593689,150.126724 378.110321,149.911346 
	C376.727966,149.857056 375.388611,148.708282 374.015747,147.593124 
M371.974274,108.900230 
	C370.530273,104.670807 369.185547,100.402756 367.566406,96.241486 
	C367.201691,95.304237 365.970612,94.507263 364.956482,94.110382 
	C364.512054,93.936470 363.216034,94.782242 362.979858,95.415886 
	C361.117493,100.412857 359.417877,105.470497 357.258942,111.688057 
	C362.973816,110.946724 367.479584,110.362236 371.974274,108.900230 
z"/>
<path fill="#F72727" opacity="1.000000" stroke="none" 
	d="
M495.337891,87.714088 
	C496.069183,83.435265 497.458252,79.546326 497.849548,75.559456 
	C498.223541,71.749321 500.432892,71.587982 502.988098,72.121468 
	C509.971222,73.579430 516.838928,75.702644 523.872986,76.760620 
	C527.914612,77.368523 527.686890,79.209351 526.998718,81.984932 
	C524.864868,90.590408 522.715332,99.192062 520.615173,107.805740 
	C519.504395,112.361420 518.453369,116.932274 517.432800,121.509064 
	C516.772339,124.470787 516.003052,126.290955 512.018982,125.197220 
	C505.178345,123.319313 498.110413,122.269341 490.031708,120.650070 
	C491.940369,110.395729 493.771912,100.631348 495.553558,90.857880 
	C495.718109,89.955276 495.565125,88.994781 495.337891,87.714088 
z"/>
<path fill="#F72727" opacity="1.000000" stroke="none" 
	d="
M486.213715,129.533020 
	C487.475220,125.999512 489.665070,125.562668 492.667908,126.266907 
	C498.521423,127.639694 504.437286,128.744797 510.317413,130.006851 
	C513.986267,130.794281 516.821350,131.895477 515.212646,136.868942 
	C513.971985,140.704468 513.455994,144.831360 513.075684,148.871796 
	C512.710754,152.748718 510.538788,153.546051 507.367828,152.933960 
	C500.820679,151.670151 494.274292,150.375427 487.786102,148.845230 
	C484.599640,148.093704 482.354645,146.752930 483.840637,142.413651 
	C485.194305,138.460709 485.365082,134.102692 486.213715,129.533020 
z"/>
<path fill="#000000" opacity="1.000000" stroke="none" 
	d="
M283.188538,120.002060 
	C286.646210,120.000191 289.636139,120.165901 292.600372,119.960732 
	C296.918732,119.661842 298.024811,122.324509 297.932556,125.729393 
	C297.846436,128.908493 296.683807,131.339020 292.633301,131.055725 
	C288.890350,130.793930 285.114685,130.999969 280.121399,130.999969 
	C281.083221,126.913200 281.896271,123.458527 283.188538,120.002060 
z"/>
<path fill="#000000" opacity="1.000000" stroke="none" 
	d="
M292.999023,97.783379 
	C290.796936,105.090195 285.324188,100.729752 281.190948,102.160439 
	C281.190948,98.533928 281.190948,95.465775 281.190948,92.419319 
	C291.832855,91.222740 292.397888,91.463570 292.999023,97.783379 
z"/>
<path fill="#000000" opacity="1.000000" stroke="none" 
	d="
M218.000000,105.103821 
	C217.999969,111.403618 218.090714,117.219780 217.974304,123.031792 
	C217.859085,128.784332 213.692215,131.877563 208.098862,130.552078 
	C201.000046,128.869812 200.999985,128.869812 201.000000,121.190704 
	C201.000015,113.715126 200.938751,106.238823 201.026093,98.764267 
	C201.069855,95.019539 202.438141,92.831940 206.909927,92.906616 
	C217.433228,93.082321 217.999985,93.474472 218.000000,105.103821 
z"/>
<path fill="#000000" opacity="1.000000" stroke="none" 
	d="
M447.999939,99.892410 
	C446.893005,105.805496 445.933228,106.304276 437.247467,105.773361 
	C437.247467,101.729858 437.247467,97.662148 437.247467,93.581551 
	C445.516815,91.817223 449.010101,93.487778 447.999939,99.892410 
z"/>
<path fill="#000000" opacity="1.000000" stroke="none" 
	d="
M371.979797,109.338989 
	C367.479584,110.362236 362.973816,110.946724 357.258942,111.688057 
	C359.417877,105.470497 361.117493,100.412857 362.979858,95.415886 
	C363.216034,94.782242 364.512054,93.936470 364.956482,94.110382 
	C365.970612,94.507263 367.201691,95.304237 367.566406,96.241486 
	C369.185547,100.402756 370.530273,104.670807 371.979797,109.338989 
z"/>
</svg>